<svg xmlns="http://www.w3.org/2000/svg" width="1200" height="120" viewBox="0 0 1200 120"><style>.func { font: 12px sans-serif; } .func:hover { stroke: black; stroke-width: 1; cursor: pointer; opacity: 0.9; }</style><text x="600" y="20" font-size="16" text-anchor="middle" font-weight="bold">Stylus Transaction Profile</text><rect x="0.00" y="50.00" width="1200.00" height="20" fill="rgb(75, 0, 130)" stroke="white" stroke-width="0.5" class="func"><title>root: 5237612355 ink / 523761 gas</title></rect><text x="0.00" y="50.00" dx="4" dy="14" font-size="12" fill="white" pointer-events="none">root</text><rect x="0.00" y="30.00" width="558.20" height="20" fill="rgb(138, 43, 226)" stroke="white" stroke-width="0.5" class="func"><title>native_keccak256: 2436365400 ink / 243636 gas</title></rect><text x="0.00" y="30.00" dx="4" dy="14" font-size="12" fill="white" pointer-events="none">native_keccak256</text><rect x="558.20" y="30.00" width="550.11" height="20" fill="rgb(255, 140, 0)" stroke="white" stroke-width="0.5" class="func"><title>storage_load_bytes32: 2401056960 ink / 240105 gas</title></rect><text x="558.20" y="30.00" dx="4" dy="14" font-size="12" fill="white" pointer-events="none">storage_load_bytes32</text><rect x="1108.31" y="30.00" width="91.66" height="20" fill="rgb(220, 20, 60)" stroke="white" stroke-width="0.5" class="func"><title>storage_flush_cache: 400068073 ink / 40006 gas</title></rect><text x="1108.31" y="30.00" dx="4" dy="14" font-size="12" fill="white" pointer-events="none">storage_fl...</text><text x="10" y="90" font-size="14" font-weight="bold">Legend:</text><rect x="80" y="78" width="15" height="15" fill="rgb(220, 20, 60)" rx="2"/><text x="100" y="90" font-size="12">Storage (Ex)</text><rect x="200" y="78" width="15" height="15" fill="rgb(255, 140, 0)" rx="2"/><text x="220" y="90" font-size="12">Storage</text><rect x="320" y="78" width="15" height="15" fill="rgb(138, 43, 226)" rx="2"/><text x="340" y="90" font-size="12">Crypto</text><rect x="440" y="78" width="15" height="15" fill="rgb(34, 139, 34)" rx="2"/><text x="460" y="90" font-size="12">Memory</text><rect x="560" y="78" width="15" height="15" fill="rgb(70, 130, 180)" rx="2"/><text x="580" y="90" font-size="12">Call/Msg</text><rect x="680" y="78" width="15" height="15" fill="rgb(100, 149, 237)" rx="2"/><text x="700" y="90" font-size="12">System</text></svg>